HIERARCHY
ROOT Hips
{
  OFFSET 0.0000 0.0000 0.0000
  CHANNELS 6 Xposition Yposition Zposition Zrotation Xrotation Yrotation
  JOINT LeftHip
  {
    OFFSET 5.5000 -0.0000 0.0000
    CHANNELS 3 Zrotation Xrotation Yrotation
    JOINT LeftKnee
    {
      OFFSET 0.0000 -17.5000 0.0000
      CHANNELS 3 Zrotation Xrotation Yrotation
      JOINT LeftAnkle
      {
        OFFSET 0.0000 -17.0000 0.0000
        CHANNELS 3 Zrotation Xrotation Yrotation
        End Site
        {
            OFFSET -0.0000 -4.7000 -2.0000
        }
      }
    }
  }
  JOINT RightHip
  {
    OFFSET -5.5000 -0.0000 0.0000
    CHANNELS 3 Zrotation Xrotation Yrotation
    JOINT RightKnee
    {
      OFFSET 0.0000 -17.5000 0.0000
      CHANNELS 3 Zrotation Xrotation Yrotation
      JOINT RightAnkle
      {
        OFFSET -0.0000 -17.0000 -0.0000
        CHANNELS 3 Zrotation Xrotation Yrotation
        End Site
        {
            OFFSET 0.0000 -4.7000 -2.0000
        }
      }
    }
  }
  JOINT Chest
  {
    OFFSET 0.0000 3.0000 -1.0000
    CHANNELS 3 Zrotation Xrotation Yrotation
    JOINT LeftCollar
    {
      OFFSET -0.0000 18.0000 1.0000
      CHANNELS 3 Zrotation Xrotation Yrotation
      JOINT LeftShoulder
      {
        OFFSET 6.5000 0.0000 0.0000
        CHANNELS 3 Zrotation Xrotation Yrotation
        JOINT LeftElbow
        {
          OFFSET 0.0000 -11.0000 0.0000
          CHANNELS 3 Zrotation Xrotation Yrotation
          JOINT LeftWrist
          {
            OFFSET 0.0000 -10.5000 0.0000
            CHANNELS 3 Zrotation Xrotation Yrotation
            End Site
            {
                OFFSET 0.0000 -6.0000 0.0000
            }
          }
        }
      }
    }
    JOINT RightCollar
    {
      OFFSET -0.0000 18.0000 1.0000
      CHANNELS 3 Zrotation Xrotation Yrotation
      JOINT RightShoulder
      {
        OFFSET -6.5000 0.0000 0.0000
        CHANNELS 3 Zrotation Xrotation Yrotation
        JOINT RightElbow
        {
          OFFSET -0.0000 -11.0000 -0.0000
          CHANNELS 3 Zrotation Xrotation Yrotation
          JOINT RightWrist
          {
            OFFSET 0.0000 -10.5000 0.0000
            CHANNELS 3 Zrotation Xrotation Yrotation
            End Site
            {
                OFFSET 0.0000 -6.0000 0.0000
            }
          }
        }
      }
    }
    JOINT Neck
    {
      OFFSET -0.0000 18.0000 1.0000
      CHANNELS 3 Zrotation Xrotation Yrotation
      JOINT Head
      {
        OFFSET 0.0000 3.0000 0.0000
        CHANNELS 3 Zrotation Xrotation Yrotation
        End Site
        {
            OFFSET 0.0000 7.0000 0.0000
        }
      }
    }
  }
}
MOTION
Frames:	15
Frame Time:	0.033333
-1.2916 39.6447 0.0860 0.39 1.00 2.73 -2.03 -9.10 -0.40 0.00 23.37 0.00 -0.03 -11.30 0.63 5.14 -8.54 0.18 0.00 22.81 0.10 -1.33 -12.20 -2.29 -0.11 5.85 -0.64 0.00 0.00 0.00 9.82 -11.53 -6.36 0.00 -7.37 0.70 -16.68 0.10 -15.43 0.00 0.00 0.00 -11.81 -11.14 3.72 0.00 -10.12 -0.97 13.97 2.20 14.46 0.00 0.00 0.00 -0.51 -7.23 -2.14 
-1.2916 39.6448 0.0861 0.39 1.00 2.73 -2.03 -9.10 -0.40 0.00 23.37 0.00 -0.03 -11.30 0.63 5.14 -8.53 0.18 0.00 22.80 0.10 -1.33 -12.19 -2.29 -0.11 5.85 -0.65 0.00 0.00 0.00 9.82 -11.53 -6.36 0.00 -7.37 0.70 -16.68 0.10 -15.42 0.00 0.00 0.00 -11.80 -11.14 3.72 0.00 -10.12 -0.97 13.97 2.20 14.47 0.00 0.00 0.00 -0.50 -7.23 -2.15 
-1.2915 39.6452 0.0863 0.39 1.00 2.73 -2.03 -9.09 -0.40 0.00 23.36 0.00 -0.03 -11.30 0.63 5.14 -8.53 0.18 -0.00 22.79 0.10 -1.33 -12.19 -2.30 -0.10 5.85 -0.65 0.00 0.00 0.00 9.85 -11.53 -6.36 -0.00 -7.37 0.70 -16.70 0.10 -15.42 0.00 0.00 0.00 -11.80 -11.14 3.71 -0.00 -10.12 -0.97 13.97 2.20 14.47 0.00 0.00 0.00 -0.50 -7.21 -2.15 
-1.2916 39.6457 0.0865 0.39 1.00 2.73 -2.03 -9.09 -0.40 0.00 23.36 0.00 -0.03 -11.29 0.63 5.14 -8.52 0.18 0.00 22.78 0.11 -1.33 -12.18 -2.30 -0.11 5.85 -0.65 0.00 0.00 0.00 9.87 -11.53 -6.36 0.00 -7.37 0.69 -16.71 0.09 -15.41 0.00 0.00 0.00 -11.80 -11.17 3.71 -0.00 -10.15 -0.97 13.99 2.25 14.46 0.00 0.00 0.00 -0.50 -7.18 -2.15 
-1.2916 39.6462 0.0866 0.39 1.00 2.73 -2.03 -9.09 -0.40 0.00 23.35 0.00 -0.03 -11.29 0.63 5.14 -8.52 0.18 0.00 22.76 0.11 -1.33 -12.18 -2.30 -0.11 5.85 -0.65 0.00 0.00 0.00 9.90 -11.53 -6.35 0.00 -7.37 0.69 -16.72 0.09 -15.41 0.00 0.00 0.00 -11.80 -11.20 3.71 -0.00 -10.18 -0.97 14.01 2.30 14.45 0.00 0.00 0.00 -0.52 -7.16 -2.16 
-1.2914 39.6467 0.0883 0.39 1.00 2.73 -2.03 -9.09 -0.40 0.00 23.35 0.00 -0.03 -11.29 0.63 5.14 -8.51 0.18 0.00 22.75 0.11 -1.33 -12.17 -2.30 -0.11 5.85 -0.65 0.00 0.00 0.00 9.92 -11.54 -6.35 -0.00 -7.37 0.69 -16.72 0.09 -15.41 0.00 0.00 0.00 -11.80 -11.23 3.71 -0.00 -10.20 -0.97 14.02 2.33 14.44 0.00 0.00 0.00 -0.54 -7.14 -2.17 
-1.2911 39.6469 0.0912 0.39 1.00 2.73 -2.03 -9.08 -0.40 0.00 23.35 0.00 -0.03 -11.30 0.63 5.14 -8.50 0.18 0.00 22.75 0.11 -1.33 -12.18 -2.30 -0.10 5.85 -0.65 0.00 0.00 0.00 9.95 -11.54 -6.34 0.00 -7.37 0.69 -16.73 0.09 -15.41 0.00 0.00 0.00 -11.79 -11.26 3.71 0.00 -10.21 -0.97 14.03 2.34 14.43 0.00 0.00 0.00 -0.56 -7.12 -2.17 
-1.2900 39.6469 0.1114 0.39 1.00 2.74 -2.03 -9.05 -0.40 0.00 23.36 0.00 -0.03 -11.34 0.64 5.14 -8.47 0.18 0.00 22.75 0.11 -1.33 -12.21 -2.30 -0.10 5.85 -0.65 0.00 0.00 0.00 9.96 -11.54 -6.34 0.00 -7.37 0.69 -16.73 0.09 -15.41 0.00 0.00 0.00 -11.79 -11.28 3.72 -0.00 -10.21 -0.97 14.04 2.35 14.43 0.00 0.00 0.00 -0.58 -7.11 -2.17 
-1.2882 39.6449 0.1452 0.38 1.00 2.74 -2.03 -9.00 -0.41 0.00 23.37 0.00 -0.03 -11.40 0.64 5.14 -8.41 0.18 -0.00 22.75 0.11 -1.33 -12.27 -2.31 -0.10 5.85 -0.65 0.00 0.00 0.00 9.97 -11.54 -6.33 0.00 -7.37 0.69 -16.73 0.09 -15.41 0.00 0.00 0.00 -11.79 -11.30 3.72 0.00 -10.21 -0.97 14.05 2.35 14.43 0.00 0.00 0.00 -0.59 -7.10 -2.17 
-1.2864 39.6423 0.1783 0.38 1.00 2.74 -2.03 -8.94 -0.41 0.00 23.37 0.00 -0.03 -11.46 0.64 5.14 -8.35 0.18 0.00 22.74 0.12 -1.33 -12.32 -2.31 -0.10 5.85 -0.65 0.00 0.00 0.00 9.98 -11.54 -6.33 -0.00 -7.37 0.69 -16.73 0.09 -15.42 0.00 0.00 0.00 -11.79 -11.32 3.72 0.00 -10.20 -0.97 14.06 2.34 14.43 0.00 0.00 0.00 -0.61 -7.09 -2.17 
-1.2855 39.6407 0.1967 0.38 1.00 2.74 -2.03 -8.91 -0.41 0.00 23.36 0.00 -0.03 -11.48 0.64 5.15 -8.31 0.18 0.00 22.72 0.12 -1.33 -12.34 -2.32 -0.10 5.85 -0.65 0.00 0.00 0.00 9.99 -11.54 -6.33 0.00 -7.37 0.70 -16.73 0.09 -15.42 0.00 0.00 0.00 -11.79 -11.33 3.72 -0.00 -10.20 -0.97 14.07 2.33 14.44 0.00 0.00 0.00 -0.61 -7.08 -2.17 
-1.2855 39.6406 0.1967 0.38 1.00 2.74 -2.02 -8.91 -0.41 0.00 23.36 0.00 -0.03 -11.48 0.64 5.15 -8.30 0.18 -0.00 22.71 0.12 -1.33 -12.34 -2.32 -0.10 5.85 -0.65 0.00 0.00 0.00 10.00 -11.54 -6.33 0.00 -7.37 0.70 -16.72 0.09 -15.42 0.00 0.00 0.00 -11.79 -11.34 3.72 0.00 -10.19 -0.97 14.08 2.32 14.44 0.00 0.00 0.00 -0.64 -7.07 -2.18 
-1.2900 39.6412 0.1972 0.38 1.00 2.74 -2.02 -8.90 -0.41 0.00 23.35 0.00 -0.04 -11.48 0.64 5.16 -8.29 0.18 0.00 22.68 0.13 -1.34 -12.32 -2.32 -0.10 5.85 -0.65 0.00 0.00 0.00 10.00 -11.54 -6.33 -0.00 -7.37 0.70 -16.72 0.09 -15.42 0.00 0.00 0.00 -11.81 -11.35 3.71 -0.00 -10.18 -0.96 14.10 2.31 14.43 0.00 0.00 0.00 -0.69 -7.07 -2.19 
-1.2954 39.6418 0.1978 0.38 1.00 2.74 -2.01 -8.90 -0.41 0.00 23.35 0.00 -0.05 -11.48 0.64 5.17 -8.28 0.18 0.00 22.66 0.13 -1.35 -12.31 -2.33 -0.10 5.85 -0.65 0.00 0.00 0.00 10.05 -11.50 -6.32 0.00 -7.34 0.69 -16.76 0.03 -15.42 0.00 0.00 0.00 -11.79 -11.32 3.72 0.00 -10.15 -0.96 14.07 2.25 14.44 0.00 0.00 0.00 -0.69 -7.01 -2.18 
-1.2977 39.6424 0.1980 0.38 1.00 2.74 -2.00 -8.90 -0.41 0.00 23.34 0.00 -0.05 -11.47 0.64 5.17 -8.27 0.18 0.00 22.65 0.13 -1.35 -12.30 -2.33 -0.09 5.86 -0.65 0.00 0.00 0.00 10.09 -11.47 -6.32 -0.00 -7.33 0.69 -16.78 -0.02 -15.42 0.00 0.00 0.00 -11.77 -11.29 3.73 -0.00 -10.13 -0.96 14.06 2.20 14.45 0.00 0.00 0.00 -0.72 -6.97 -2.16 
